<svg id="visual" viewBox="0 0 900 600" width="900" height="600" xmlns="http://www.w3.org/2000/svg" xmlns:xlink="http://www.w3.org/1999/xlink" version="1.1"><rect x="0" y="0" width="900" height="600" fill="#002233"></rect><path d="M0 479L21.5 486.3C43 493.7 86 508.3 128.8 504C171.7 499.7 214.3 476.3 257.2 461.5C300 446.7 343 440.3 385.8 433.3C428.7 426.3 471.3 418.7 514.2 429.8C557 441 600 471 642.8 489.2C685.7 507.3 728.3 513.7 771.2 498.8C814 484 857 448 878.5 430L900 412L900 601L878.5 601C857 601 814 601 771.2 601C728.3 601 685.7 601 642.8 601C600 601 557 601 514.2 601C471.3 601 428.7 601 385.8 601C343 601 300 601 257.2 601C214.3 601 171.7 601 128.8 601C86 601 43 601 21.5 601L0 601Z" fill="#0066FF" stroke-linecap="round" stroke-linejoin="miter"></path></svg>